# xmcd
#
# Track frame offsets:
#	182
#	17392
#	31592
#	37892
#	52417
#	70300
#	89195
#	110660
#	119052
#	137465
#	142600
#	160775
#	175712
#	189255
#	202482
#	220390
#
# Disc length: 3059 seconds
#
# Revision: 0
# Processed by: cddbd v1.5.1PL0 Copyright (c) Steve Scherf et al.
# Submitted via: dBpowerAMP V4.0
#
DISCID=e60bf110
DTITLE=A Elétrika Tribo - same
DYEAR=1994
DGENRE=blues
TTITLE0=Flor do juízo
TTITLE1=Bar Fly Blues
TTITLE2=Intro - das tripas
TTITLE3=Das tripas coração
TTITLE4=Caso de polícia
TTITLE5=O errante
TTITLE6=Quando você precisar
TTITLE7=Blues dinamite
TTITLE8=Quantos passos tem?
TTITLE9=Elétrika Jam
TTITLE10=Só lamente
TTITLE11=Trilogia
TTITLE12=O que vale a vida
TTITLE13=Paquiderme
TTITLE14=Com um pouco de sorte
TTITLE15=x-tra
EXTD=
EXTT0=
EXTT1=
EXTT2=
EXTT3=
EXTT4=
EXTT5=
EXTT6=
EXTT7=
EXTT8=
EXTT9=
EXTT10=
EXTT11=
EXTT12=
EXTT13=
EXTT14=
EXTT15=
PLAYORDER=
